<?xml version="1.0" encoding="UTF-8"?>
<svg xmlns="http://www.w3.org/2000/svg" width="24" height="24" viewBox="0 0 24 24" fill="none" shape-rendering="geometricPrecision">
  <title>Alarm Acknowledge</title>
  <defs>
    <linearGradient id="steel" x1="3" y1="2" x2="21" y2="22" gradientUnits="userSpaceOnUse">
      <stop offset="0" stop-color="#30364f"/>
      <stop offset="1" stop-color="#171923"/>
    </linearGradient>
    <linearGradient id="glass" x1="4" y1="3" x2="20" y2="20" gradientUnits="userSpaceOnUse">
      <stop offset="0" stop-color="#ffffff" stop-opacity="0.28"/>
      <stop offset="0.48" stop-color="#ffffff" stop-opacity="0.04"/>
      <stop offset="1" stop-color="#000000" stop-opacity="0.25"/>
    </linearGradient>
    <linearGradient id="rail" x1="4" y1="5" x2="20" y2="18" gradientUnits="userSpaceOnUse">
      <stop offset="0" stop-color="#414868"/>
      <stop offset="1" stop-color="#202437"/>
    </linearGradient>
  </defs>
  <g stroke-linecap="round" stroke-linejoin="round">

    <path d="M7.2 10.4c0-2.9 1.75-5.1 4.8-5.1s4.8 2.2 4.8 5.1v3.4l1.8 2.4H5.4l1.8-2.4v-3.4z" fill="#1f2335" stroke="#f1c40f" stroke-width="1"/>
    <path d="M9.8 17.3c.35 1.1 1.1 1.7 2.2 1.7s1.85-.6 2.2-1.7" stroke="#a9b1d6" stroke-width="0.9"/>
    <path d="M3.7 5.2 2.5 4M20.3 5.2 21.5 4M12 3.6V2" stroke="#ff9e64" stroke-width="0.9"/>
    <path d="M9.5 11.9 11.2 13.6 15 9.8" stroke="#2ecc71" stroke-width="1.25"/>
    <path d="M8.3 8.9c.55-1.25 1.75-2 3.7-2" stroke="#ffffff" stroke-opacity="0.16" stroke-width="0.75"/>

  </g>
</svg>
